# xmcd CD database file
#
# Track frame offsets:
#	187
#	20032
#	43837
#	64645
#	98247
#	128205
#	152530
#	172335
#	209150
#	233312
#
# Disc length: 3474 seconds
#
# Revision: 0
# Processed by: cddbd v1.5PL3 Copyright (c) Steve Scherf et al.
# Submitted via: CDex 1.51
#
DISCID=890d900a
DTITLE=Miles Davis - The Mute
DYEAR=1988
DGENRE=Jazz
TTITLE0=You don't Know What Love Is
TTITLE1=A Gal In Garico
TTITLE2=In Your Own Sweet Way
TTITLE3=Just Squeeze Me
TTITLE4=It Could Happen To You
TTITLE5=It Never Entered My Mind
TTITLE6=When I Fall In Love
TTITLE7=If I Were A Bell
TTITLE8='Round About Midnight
TTITLE9=My Funny Valentine
EXTD=YEAR: 1988
EXTT0=
EXTT1=
EXTT2=
EXTT3=
EXTT4=
EXTT5=
EXTT6=
EXTT7=
EXTT8=
EXTT9=
PLAYORDER=
